# xmcd CD database file
#
# Track frame offsets:
#	150
#	9822
#	39880
#	77712
#	108710
#	142675
#	167000
#	185577
#	227935
#	242360
#	256195
#	265785
#	279200
#
# Disc length: 4185 seconds
#
# Revision: 0
# Processed by: cddbd v1.5.2PL0 Copyright (c) Steve Scherf et al.
# Submitted via: CDex 1.51
#
DISCID=9610570d
DTITLE=Little Sonny - Blues with a feeling (live 1972)
DYEAR=1994
DGENRE=Blues
TTITLE0=Introduction by Michael Turner - The Creeper Returns
TTITLE1=They Want Money
TTITLE2=A Woman Named Trouble
TTITLE3=Goin' Down Slow
TTITLE4=Hots Potatoes
TTITLE5=Honest I Do
TTITLE6=Blues With A Feeling
TTITLE7=Sad Funk Medley
TTITLE8=John Sinclair Interview (New Orleans, 1994)
TTITLE9=The Creeper
TTITLE10=Latin Soul
TTITLE11=Stretchin' Out
TTITLE12=Little Sonny Interview (Detroit, 1994)
EXTD=YEAR: 1994
EXTT0=
EXTT1=
EXTT2=
EXTT3=
EXTT4=
EXTT5=
EXTT6=
EXTT7=
EXTT8=
EXTT9=
EXTT10=
EXTT11=
EXTT12=
PLAYORDER=
